<svg width="24" height="24" viewBox="0 0 24 24" fill="none" xmlns="http://www.w3.org/2000/svg">
                        <path fill-rule="evenodd" clip-rule="evenodd" d="M16.25 19.492V20.75C16.25 21.164 15.914 21.5 15.5 21.5C15.086 21.5 14.75 21.164 14.75 20.75V19.5H16C16.084 19.5 16.167 19.497 16.25 19.492Z" fill="white"></path>
                        <path fill-rule="evenodd" clip-rule="evenodd" d="M14.75 19.5H8C5.929 19.5 4.25 17.821 4.25 15.75V12.668L9.964 15.825C11.202 16.509 12.798 16.509 14.036 15.825L14.75 15.431V19.5ZM16.25 14.602L19.75 12.668V15.75C19.75 17.737 18.205 19.363 16.25 19.492V14.602Z" fill="white"></path>
                        <path fill-rule="evenodd" clip-rule="evenodd" d="M14.75 14.288L13.552 14.95C12.608 15.472 11.392 15.472 10.448 14.95L2.134 10.356C1.568 10.043 1.25 9.49499 1.25 8.92199C1.25 8.34799 1.568 7.79999 2.134 7.48799L10.448 2.89299C11.392 2.37199 12.608 2.37199 13.552 2.89299L21.866 7.48799C22.432 7.79999 22.75 8.34799 22.75 8.92199C22.75 9.49499 22.432 10.043 21.866 10.356L16.25 13.459V12.75C16.25 12.551 16.171 12.36 16.03 12.22L12.53 8.71999C12.238 8.42699 11.762 8.42699 11.47 8.71999C11.177 9.01199 11.177 9.48799 11.47 9.77999L14.75 13.061V14.288Z" fill="white"></path>
                      </svg>